<?xml version="1.0" encoding="UTF-8"?>
<svg width="700pt" height="700pt" version="1.1" viewBox="0 0 700 700" xmlns="http://www.w3.org/2000/svg" fill="#194340">
 <path d="m628.37 263.86c-57.031-46.234-105.07-101.54-157.61-152.51-34.316-33.285-62.824-82.004-109.38-99.469-1.0859-1.1719-3.2188-1.7344-5.8789-1.7344-4.8828-0.35156-11.059 1.3281-14.77 4.0234-39.848 16.258-69.039 55.109-96.934 86.188-52.359 58.363-109.66 117.06-170.59 166.46-1.8008 1.4531-3.8672 4.3906-1.6797 6.5117 5.4062 5.7031 11.305 10.781 17.797 15.242 5.8438 4.5508 16.188 1.0859 21.352-2.9766 4.9531-3.9219 9.7461-8.0312 14.523-12.094-2.5039 88.531-6.9648 181.25 1.3828 268.55 0.15625 1.6289 3.4297 1.8359 4.3906 1.9062 81.828 5.0234 165.02 4.8477 247.19 3.9023 61.18-0.68359 131.65 9.3281 190.28-10.078 1.8711-0.61328 7.4531-2.6602 7.875-5.1641 13.93-82.301 0.015625-172.5-4.9531-257.69 5.3203 4.6562 10.605 9.2578 16.172 13.633 5.8438 4.6211 16.188 1.0312 21.367-2.9766 6.4766-4.4609 12.391-9.5547 17.797-15.242 1.4922-1.4297 4.1523-4.4727 1.6641-6.4883zm-296.96-215.18c-0.035156 0-0.070312-0.035156-0.10547-0.035156 0.070312-0.070313 0.12109-0.14063 0.17578-0.21094-0.015625 0.089844-0.035156 0.19531-0.070313 0.24609zm96.496 488.27c0.035156-60.461 2.3633-121.41-0.035156-181.84-1.0859-28.141-11.48-72.836-47.758-74.324-123.52-5.0742-102.8 182.16-98.754 258.56 0.035157 0.62891 0.36719 1.0664 0.52344 1.6289-66.219-0.75391-130.74-7.5234-133.09-32.164-7.9258-82.809-0.61328-174.07 1.5742-257.79 40.199-37.992 76.477-80.098 118.02-116.8 28.719-25.375 61.949-43.242 80.203-72.66 17.027 31.691 50.871 51.379 81.254 75.637 42.262 33.723 76.93 75.652 115.43 113.59 1.2773 69.281 5.0391 138.48 8.0664 207.69 3.8711 88.863-48.699 77.961-125.44 78.469z"/>
</svg>
